<mxfile host="app.diagrams.net" agent="Mozilla/5.0 (Windows NT 10.0; Win64; x64) AppleWebKit/537.36 (KHTML, like Gecko) Chrome/122.0.0.0 Safari/537.36 Edg/122.0.0.0" version="26.1.0">
  <diagram name="PÃ¡gina-1" id="B8srg19JYptdY4p_CNiw">
    <mxGraphModel dx="802" dy="428" grid="1" gridSize="10" guides="1" tooltips="1" connect="1" arrows="1" fold="1" page="1" pageScale="1" pageWidth="827" pageHeight="1169" math="0" shadow="0">
      <root>
        <mxCell id="0" />
        <mxCell id="1" parent="0" />
        <mxCell id="41zvRrQDUQ6pDLKBzgBa-1" value="Cliente" style="shape=umlActor;verticalLabelPosition=bottom;verticalAlign=top;html=1;outlineConnect=0;" vertex="1" parent="1">
          <mxGeometry x="130" y="180" width="30" height="60" as="geometry" />
        </mxCell>
        <mxCell id="41zvRrQDUQ6pDLKBzgBa-4" value="Fazer Reserva" style="ellipse;whiteSpace=wrap;html=1;" vertex="1" parent="1">
          <mxGeometry x="320" y="170" width="120" height="80" as="geometry" />
        </mxCell>
        <mxCell id="41zvRrQDUQ6pDLKBzgBa-5" value="Cancelar Reserva" style="ellipse;whiteSpace=wrap;html=1;" vertex="1" parent="1">
          <mxGeometry x="320" y="290" width="120" height="80" as="geometry" />
        </mxCell>
        <mxCell id="41zvRrQDUQ6pDLKBzgBa-6" value="" style="endArrow=classic;html=1;rounded=0;" edge="1" parent="1">
          <mxGeometry width="50" height="50" relative="1" as="geometry">
            <mxPoint x="180" y="200" as="sourcePoint" />
            <mxPoint x="310" y="200" as="targetPoint" />
          </mxGeometry>
        </mxCell>
        <mxCell id="41zvRrQDUQ6pDLKBzgBa-7" value="" style="endArrow=classic;html=1;rounded=0;" edge="1" parent="1">
          <mxGeometry width="50" height="50" relative="1" as="geometry">
            <mxPoint x="180" y="240" as="sourcePoint" />
            <mxPoint x="300" y="320" as="targetPoint" />
          </mxGeometry>
        </mxCell>
      </root>
    </mxGraphModel>
  </diagram>
</mxfile>
